<?xml version="1.0" encoding="UTF-8" standalone="no"?>
<!DOCTYPE svg PUBLIC "-//W3C//DTD SVG 1.1//EN" "http://www.w3.org/Graphics/SVG/1.1/DTD/svg11.dtd">
<svg version="1.1" xmlns="http://www.w3.org/2000/svg" xmlns:xlink="http://www.w3.org/1999/xlink" preserveAspectRatio="xMidYMid meet" viewBox="0 0 1000 1000" width="1000" height="1000"><defs><path d="M0 890.63L62.5 796.88L62.5 500L171.88 312.5L171.88 0" id="a2zU4pxSq8"></path><path d="M996.81 625L795.99 506.29L499.12 503.95L312.49 393.09L0 390.63" id="jzBxlKKY4"></path><path d="M609.38 1000L531.25 906.25L531.25 640.63L656.25 421.88L656.25 218.75L515.63 0" id="aihNAE5HB"></path><path d="M-8.66 680.62L108.29 773.73L341.74 699.93L617.02 719.8L827.66 631.25L1000 406.25" id="bijzkvWWt"></path><path d="M0 343.75L93.75 343.75L343.75 468.75L718.75 468.75L781.25 218.75L1000 125" id="a1kPH6qs9k"></path><path d="M776.41 999.66L716.9 918.1L457.23 774.28L219.19 448.03L381.48 246.3L318.36 0.74" id="bhkF4RiW"></path><path d="M437.5 0L462.8 375L125 687.5L187.5 996" id="a22JOEqj3"></path><path d="M1000 752.88L635.25 650.68L386.5 312.5L-6.26 125" id="cQOyV3aTQ"></path><path d="M968.75 1000L866.8 875L426.8 598L562.5 395.09L875 343.75L812.5 0" id="auz20nwpr"></path><path d="M0 558L281.25 656.25L375 1000" id="e1PVFVGX1y"></path><path d="M593.75 0L593.75 281.25L1000 500" id="b2Gnn0cJz9"></path><path d="M1000 192.92L653.04 43.91L417.94 222.62L0 229.08" id="l4vmPj1Ve"></path><path d="M531.25 1031.25L766.45 906.25L774.45 611.05L1031.25 281.25" id="fCIeJR3An"></path><path d="M1000 886.17L656.25 821.16L417.94 915.87L0 922.33" id="f2ziO4LPKp"></path></defs><g><g><g><g><use xlink:href="#a2zU4pxSq8" opacity="1" fill-opacity="0" stroke="#000000" stroke-width="5" stroke-opacity="1"></use></g></g><g><g><use xlink:href="#jzBxlKKY4" opacity="1" fill-opacity="0" stroke="#000000" stroke-width="5" stroke-opacity="1"></use></g></g><g><g><use xlink:href="#aihNAE5HB" opacity="1" fill-opacity="0" stroke="#000000" stroke-width="5" stroke-opacity="1"></use></g></g><g><g><use xlink:href="#bijzkvWWt" opacity="1" fill-opacity="0" stroke="#000000" stroke-width="5" stroke-opacity="1"></use></g></g><g><g><use xlink:href="#a1kPH6qs9k" opacity="1" fill-opacity="0" stroke="#000000" stroke-width="5" stroke-opacity="1"></use></g></g><g><g><use xlink:href="#bhkF4RiW" opacity="1" fill-opacity="0" stroke="#000000" stroke-width="5" stroke-opacity="1"></use></g></g><g><g><use xlink:href="#a22JOEqj3" opacity="1" fill-opacity="0" stroke="#000000" stroke-width="5" stroke-opacity="1"></use></g></g><g><g><use xlink:href="#cQOyV3aTQ" opacity="1" fill-opacity="0" stroke="#000000" stroke-width="5" stroke-opacity="1"></use></g></g><g><g><use xlink:href="#auz20nwpr" opacity="1" fill-opacity="0" stroke="#000000" stroke-width="5" stroke-opacity="1"></use></g></g><g><g><use xlink:href="#e1PVFVGX1y" opacity="1" fill-opacity="0" stroke="#000000" stroke-width="5" stroke-opacity="1"></use></g></g><g><g><use xlink:href="#b2Gnn0cJz9" opacity="1" fill-opacity="0" stroke="#000000" stroke-width="5" stroke-opacity="1"></use></g></g><g><g><use xlink:href="#l4vmPj1Ve" opacity="1" fill-opacity="0" stroke="#000000" stroke-width="5" stroke-opacity="1"></use></g></g><g><g><use xlink:href="#fCIeJR3An" opacity="1" fill-opacity="0" stroke="#000000" stroke-width="5" stroke-opacity="1"></use></g></g><g><g><use xlink:href="#f2ziO4LPKp" opacity="1" fill-opacity="0" stroke="#000000" stroke-width="5" stroke-opacity="1"></use></g></g></g></g></svg>