<?xml version="1.0" encoding="UTF-8" standalone="no"?>
<!DOCTYPE svg PUBLIC "-//W3C//DTD SVG 1.1//EN" "http://www.w3.org/Graphics/SVG/1.1/DTD/svg11.dtd">
<svg version="1.1" xmlns="http://www.w3.org/2000/svg" xmlns:xlink="http://www.w3.org/1999/xlink" preserveAspectRatio="xMidYMid meet" viewBox="0 0 640 640" width="640" height="640"><defs><path d="M310.83 613.58L313.58 334.68L271.38 302.57L271.38 233.76L87.89 45.69" id="duYs6fJWy"></path><path d="M97.98 214.5L94.31 517.25L142.02 572.29L342.02 572.29L497.98 445.69L497.98 204.4L390.64 100.73L217.25 100.73L97.98 214.5Z" id="c5IfEz46Zg"></path><path d="M581.47 441.1L447.52 441.1L386.06 395.23L208.99 395.23L151.19 359.45L44.77 359.45" id="aKvZEt7aA"></path><path d="M271.38 292.48L331.01 230.09L333.76 3.49" id="a2rslbt6Sq"></path><path d="M167.71 613.58L313.58 447.52L313.58 333.76L271.38 303.49L271.38 292.48L529.17 36.51" id="b3i6qtHEZR"></path><path d="M279.63 521.83L263.12 502.57L263.12 407.16L299.82 364.95L302.57 244.77L320 221.83L340.18 201.65L340.18 182.39L340.18 138.35L352.11 124.59L362.2 113.58L362.2 97.06L362.2 76.88L352.11 67.71L336.51 53.94L336.51 31.01" id="bNVxp8Hsi"></path><path d="M288.81 512.66L271.38 495.23L271.38 411.74L309.91 365.87L309.91 248.44L411.74 136.51" id="bnfo0WyDg"></path><path d="M387.89 362.2L189.72 362.2L153.03 329.63" id="l49USwrcOz"></path><path d="M138.35 369.54L510.83 369.54" id="eNP6QWxjv"></path></defs><g><g><g><g><use xlink:href="#duYs6fJWy" opacity="1" fill-opacity="0" stroke="#838383" stroke-width="6" stroke-opacity="1"></use></g></g><g><g><use xlink:href="#c5IfEz46Zg" opacity="1" fill-opacity="0" stroke="#838383" stroke-width="6" stroke-opacity="1"></use></g></g><g><g><use xlink:href="#aKvZEt7aA" opacity="1" fill-opacity="0" stroke="#838383" stroke-width="6" stroke-opacity="1"></use></g></g><g><g><use xlink:href="#a2rslbt6Sq" opacity="1" fill-opacity="0" stroke="#838383" stroke-width="6" stroke-opacity="1"></use></g></g><g><g><use xlink:href="#b3i6qtHEZR" opacity="1" fill-opacity="0" stroke="#838383" stroke-width="6" stroke-opacity="1"></use></g></g><g><g><use xlink:href="#bNVxp8Hsi" opacity="1" fill-opacity="0" stroke="#db2020" stroke-width="6" stroke-opacity="1"></use></g></g><g><g><use xlink:href="#bnfo0WyDg" opacity="1" fill-opacity="0" stroke="#f09804" stroke-width="6" stroke-opacity="1"></use></g></g><g><g><use xlink:href="#l49USwrcOz" opacity="1" fill-opacity="0" stroke="#42e10d" stroke-width="6" stroke-opacity="1"></use></g></g><g><g><use xlink:href="#eNP6QWxjv" opacity="1" fill-opacity="0" stroke="#2422db" stroke-width="6" stroke-opacity="1"></use></g></g></g></g></svg>